<svg xmlns="http://www.w3.org/2000/svg" xmlns:xlink="http://www.w3.org/1999/xlink" width="500" 



zoomAndPan="magnify" viewBox="0 0 375 374.999991" height="500" preserveAspectRatio="xMidYMid meet" version="1.0">


<defs><g/><clipPath id="19ffebb799"><path d="M 152 154 L 200 154 L 200 234 L 152 234 Z M 152 154 " 
clip-rule="nonzero"/></clipPath><clipPath id="ef88ac5cbf"><path d="M 139.578125 184.699219 L 164.816406 153.988281 L 224.496094 203.039062 L 199.257812 233.75 Z M 139.578125 184.699219 " clip-rule="nonzero"/></clipPath><clipPath id="4627ed3fa6"><path d="M 139.578125 184.699219 L 164.816406 153.988281 L 224.496094 203.039062 L 199.257812 233.75 Z M 139.578125 184.699219 " clip-rule="nonzero"/></clipPath><clipPath id="01b720db63"><path d="M 152 166 L 200 166 L 200 234 L 152 234 Z M 152 166 " clip-rule="nonzero"/></clipPath><clipPath id="874ef061ff"><path d="M 139.578125 184.699219 L 164.816406 153.988281 L 224.496094 203.039062 L 199.257812 233.75 Z M 139.578125 184.699219 " clip-rule="nonzero"/></clipPath><clipPath id="e54668cdd0"><path d="M 139.578125 184.699219 L 164.816406 153.988281 L 224.496094 203.039062 L 199.257812 233.75 Z M 139.578125 184.699219 " clip-rule="nonzero"/></clipPath></defs><g fill="#000000" fill-opacity="1"><g transform="translate(45.715017, 220.312457)"><g><path d="M 24.859375 -56.671875 L 3.78125 -56.671875 L 3.78125 -0.09375 L 24.859375 -0.09375 C 34.4375 -0.09375 41.734375 -2.984375 46.484375 -8.609375 C 50.609375 -13.4375 52.625 -20.125 52.625 -28.375 C 52.625 -36.109375 50.171875 -43.234375 45.59375 -48.234375 C 40.5 -53.6875 33.390625 -56.671875 24.859375 -56.671875 Z M 24.859375 -7.640625 L 11.328125 -7.640625 L 11.328125 -49.109375 L 24.859375 -49.109375 C 31.1875 -49.109375 36.46875 -47 39.96875 -43.140625 C 43.3125 -39.453125 45.078125 -34.265625 45.078125 -28.375 C 45.078125 -14.5 38.484375 -7.640625 24.859375 -7.640625 Z M 24.859375 -7.640625 "/></g></g></g><g fill="#000000" fill-opacity="1"><g transform="translate(104.39543, 220.312457)"><g><path d="M 19.765625 -56.671875 L 0.609375 0 L 8.515625 0 L 12.828125 -12.734375 L 33.90625 -12.734375 L 38.3125 0 L 46.21875 0 L 26.796875 -56.671875 Z M 15.109375 -19.5 L 23.28125 -43.75 L 31.625 -19.5 Z M 15.109375 -19.5 "/></g></g></g><g fill="#000000" fill-opacity="1"><g transform="translate(155.355635, 220.312457)"><g/></g></g><g fill="#000000" fill-opacity="1"><g transform="translate(182.939354, 220.312457)"><g/></g></g><path stroke-linecap="butt" transform="matrix(0.75, 0, 0, 0.75, 62.934728, 235.644769)" fill="none" stroke-linejoin="miter" d="M -0.00151176 5.499683 L 45.493283 5.499683 " stroke="#108dd2" stroke-width="11" stroke-opacity="1" stroke-miterlimit="4"/><path stroke-linecap="butt" transform="matrix(0.75, 0, 0, 0.75, 272.934685, 235.644769)" fill="none" stroke-linejoin="miter" d="M -0.00145497 5.499683 L 45.49334 5.499683 " stroke="#108dd2" stroke-width="11" stroke-opacity="1" stroke-miterlimit="4"/><g clip-path="url(#19ffebb799)"><g clip-path="url(#ef88ac5cbf)"><g clip-path="url(#4627ed3fa6)"><path fill="#108dd2" d="M 152.007812 169.574219 L 164.652344 154.191406 L 175.296875 183.378906 L 182.707031 174.363281 L 199.527344 233.957031 L 179.09375 196.722656 L 171.515625 206.933594 Z M 152.007812 169.574219 " fill-opacity="1" fill-rule="nonzero"/></g></g></g><g clip-path="url(#01b720db63)"><g clip-path="url(#874ef061ff)"><g clip-path="url(#e54668cdd0)"><path fill="#108dd2" d="M 152.007812 169.574219 L 154.1875 166.921875 L 171.515625 206.933594 Z M 199.527344 233.957031 L 180.621094 194.867188 L 179.09375 196.722656 Z M 199.527344 233.957031 " fill-opacity="1" fill-rule="nonzero"/></g></g></g><g fill="#108dd2" fill-opacity="1"><g transform="translate(127.957658, 243.519769)"><g><path d="M 0.84375 -7 L 6 -7 L 7.296875 -5.796875 L 7.296875 -3.296875 L 6 -2.09375 L 2.25 -2.09375 L 2.25 0 L 0.84375 0 Z M 5.34375 -3.296875 L 5.90625 -3.796875 L 5.90625 -5.296875 L 5.34375 -5.796875 L 2.25 -5.796875 L 2.25 -3.296875 Z M 5.34375 -3.296875 "/></g></g></g><g fill="#108dd2" fill-opacity="1"><g transform="translate(140.434657, 243.519769)"><g><path d="M 0.703125 -1.203125 L 0.703125 -5.796875 L 2.09375 -7.09375 L 6.15625 -7.09375 L 7.546875 -5.796875 L 7.546875 -1.203125 L 6.15625 0.09375 L 2.09375 0.09375 Z M 5.5 -1.09375 L 6.15625 -1.703125 L 6.15625 -5.296875 L 5.5 -5.90625 L 2.75 -5.90625 L 2.09375 -5.296875 L 2.09375 -1.703125 L 2.75 -1.09375 Z M 5.5 -1.09375 "/></g></g></g><g fill="#108dd2" fill-opacity="1"><g transform="translate(153.411466, 243.519769)"><g><path d="M 0.09375 -7 L 1.59375 -7 L 3.15625 -1.5 L 4.75 -7 L 6.453125 -7 L 8.046875 -1.5 L 9.59375 -7 L 11.09375 -7 L 9 0 L 7.15625 0 L 5.59375 -5.09375 L 4.046875 0 L 2.203125 0 Z M 0.09375 -7 "/></g></g></g><g fill="#108dd2" fill-opacity="1"><g transform="translate(169.337105, 243.519769)"><g><path d="M 0.84375 -7 L 6.84375 -7 L 6.84375 -5.796875 L 2.25 -5.796875 L 2.25 -4.09375 L 5.75 -4.09375 L 5.75 -2.90625 L 2.25 -2.90625 L 2.25 -1.203125 L 6.953125 -1.203125 L 6.953125 0 L 0.84375 0 Z M 0.84375 -7 "/></g></g></g><g fill="#108dd2" fill-opacity="1"><g transform="translate(181.364284, 243.519769)"><g><path d="M 0.84375 -7 L 5.90625 -7 L 7.203125 -5.796875 L 7.203125 -3.5 L 6 -2.34375 L 7.703125 0 L 6.046875 0 L 4.40625 -2.296875 L 2.25 -2.296875 L 2.25 0 L 0.84375 0 Z M 5.25 -3.5 L 5.796875 -4 L 5.796875 -5.296875 L 5.25 -5.796875 L 2.25 -5.796875 L 2.25 -3.5 Z M 5.25 -3.5 "/></g></g></g><g fill="#108dd2" fill-opacity="1"><g transform="translate(194.041213, 243.519769)"><g/></g></g><g fill="#108dd2" fill-opacity="1"><g transform="translate(201.970011, 243.519769)"><g><path d="M 0.84375 -7 L 6 -7 L 7.15625 -5.953125 L 7.15625 -4.296875 L 6.5 -3.75 L 7.5 -2.796875 L 7.5 -1.046875 L 6.34375 0 L 0.84375 0 Z M 5.703125 -1.203125 L 6.09375 -1.546875 L 6.09375 -2.453125 L 5.546875 -2.953125 L 2.25 -2.953125 L 2.25 -1.203125 Z M 5.203125 -4.15625 L 5.75 -4.65625 L 5.75 -5.453125 L 5.34375 -5.796875 L 2.25 -5.796875 L 2.25 -4.15625 Z M 5.203125 -4.15625 "/></g></g></g><g fill="#108dd2" fill-opacity="1"><g transform="translate(214.696917, 243.519769)"><g><path d="M 3.09375 -7 L 4.90625 -7 L 8 0 L 6.453125 0 L 5.65625 -1.84375 L 2.34375 -1.84375 L 1.546875 0 L 0 0 Z M 5.09375 -3.046875 L 4 -5.59375 L 2.90625 -3.046875 Z M 5.09375 -3.046875 "/></g></g></g><g fill="#108dd2" fill-opacity="1"><g transform="translate(227.423816, 243.519769)"><g><path d="M 0.84375 -7 L 2.203125 -7 L 6.046875 -2.203125 L 6.046875 -7 L 7.453125 -7 L 7.453125 0 L 6.09375 0 L 2.25 -4.796875 L 2.25 0 L 0.84375 0 Z M 0.84375 -7 "/></g></g></g><g fill="#108dd2" fill-opacity="1"><g transform="translate(240.450602, 243.519769)"><g><path d="M 0.84375 -7 L 2.25 -7 L 2.25 -4.09375 L 3.453125 -4.09375 L 5.59375 -7 L 7.296875 -7 L 4.75 -3.59375 L 7.5 0 L 5.796875 0 L 3.59375 -2.90625 L 2.25 -2.90625 L 2.25 0 L 0.84375 0 Z M 0.84375 -7 "/></g></g></g><g fill="#000000" fill-opacity="1"><g transform="translate(210.28477, 216.947724)"><g><path d="M 19.78125 -56.703125 L 0.609375 0 L 8.53125 0 L 12.828125 -12.75 L 33.9375 -12.75 L 38.328125 0 L 46.234375 0 L 26.8125 -56.703125 Z M 15.125 -19.515625 L 23.296875 -43.78125 L 31.640625 -19.515625 Z M 15.125 -19.515625 "/></g></g></g><g fill="#000000" fill-opacity="1"><g transform="translate(257.13047, 216.947724)"><g><path d="M 33.40625 -28.65625 C 33.9375 -29.09375 34.453125 -29.53125 34.90625 -29.96875 C 37.359375 -32.796875 38.859375 -36.65625 38.859375 -40.53125 C 38.859375 -44.390625 37.1875 -48.4375 34.375 -51.421875 C 31.203125 -54.765625 26.90625 -56.609375 22.234375 -56.609375 L 3.78125 -56.609375 L 3.78125 -0.265625 L 3.875 -0.265625 L 3.875 0 L 22.859375 0 C 29.453125 0 33.3125 -2.90625 35.421875 -5.28125 C 38.0625 -8.171875 39.375 -11.953125 39.375 -15.90625 C 39.375 -19.953125 37.796875 -24.09375 34.90625 -27.15625 C 34.453125 -27.6875 33.9375 -28.21875 33.40625 -28.65625 Z M 11.34375 -49.046875 L 22.234375 -49.046875 C 27.6875 -49.046875 31.296875 -44.65625 31.296875 -40.53125 C 31.296875 -34.546875 26.453125 -32.4375 22.234375 -32.4375 L 11.34375 -32.4375 Z M 22.859375 -7.46875 L 11.34375 -7.46875 L 11.34375 -24.96875 L 22.859375 -24.96875 C 28.75 -24.96875 31.828125 -19.78125 31.828125 -15.90625 C 31.828125 -7.734375 23.828125 -7.46875 22.859375 -7.46875 Z M 22.859375 -7.46875 "/>
</g></g></g></svg>